<svg width="4166" height="1928" viewBox="0 0 4166 1928" fill="none" xmlns="http://www.w3.org/2000/svg">
<path opacity="0.7" d="M1140.82 0L1142.31 5.57678L1146.4 1.49429L1140.82 0ZM1144 3.18198L1143.65 3.53553L3016.47 1876.35L3016.82 1876L3017.17 1875.65L1144.36 2.82843L1144 3.18198Z" fill="white" fill-opacity="0.2"/>
<line opacity="0.7" x1="1102.51" y1="1927.32" x2="2962.51" y2="67.3183" stroke="white" stroke-opacity="0.2"/>
<line opacity="0.7" y1="-0.5" x2="1691.88" y2="-0.5" transform="matrix(-4.37114e-08 1 1 4.37114e-08 2085.72 114.57)" stroke="white" stroke-opacity="0.2"/>
<line opacity="0.7" x1="4166" y1="945.07" y2="945.07" stroke="#575757"/>
<path opacity="0.7" d="M2085.03 928.984C2067.1 928.984 2056.06 939.254 2052.47 944.407C2056.29 948.806 2067.66 960.443 2085.03 960.443C2103.56 960.443 2114.67 948.806 2118.66 944.407C2114.9 939.254 2102.96 928.984 2085.03 928.984Z" stroke="#575757"/>
<circle cx="2085.01" cy="944.711" r="2.65625" fill="#09080A" stroke="#575757"/>
<circle cx="1931.93" cy="791.859" r="2.65625" fill="#09080A" stroke="#575757"/>
<circle cx="2085.21" cy="497.984" r="2.65625" fill="#09080A" stroke="#575757"/>
<path opacity="0.7" d="M1928.09 1084.45C1927.59 1083.94 1927.2 1083.41 1926.91 1082.85C1926.62 1082.29 1926.42 1081.71 1926.31 1081.1L1926.74 1080.69C1926.77 1080.92 1926.84 1081.17 1926.95 1081.45C1927.06 1081.73 1927.19 1082.01 1927.36 1082.31C1927.52 1082.6 1927.71 1082.89 1927.92 1083.18C1928.13 1083.46 1928.35 1083.72 1928.59 1083.97C1928.9 1084.29 1929.26 1084.58 1929.64 1084.85C1930.03 1085.12 1930.42 1085.35 1930.8 1085.53C1931.19 1085.71 1931.53 1085.82 1931.84 1085.87L1931.41 1086.29C1930.81 1086.17 1930.23 1085.96 1929.68 1085.67C1929.13 1085.37 1928.6 1084.96 1928.09 1084.45ZM1933.43 1083.39C1933.13 1083.69 1932.78 1083.87 1932.41 1083.91C1932.03 1083.96 1931.62 1083.87 1931.2 1083.67C1930.77 1083.46 1930.34 1083.13 1929.89 1082.68C1929.45 1082.23 1929.13 1081.79 1928.93 1081.37C1928.74 1080.93 1928.66 1080.53 1928.71 1080.15C1928.76 1079.77 1928.94 1079.43 1929.24 1079.13C1929.54 1078.84 1929.88 1078.67 1930.26 1078.62C1930.64 1078.58 1931.05 1078.66 1931.48 1078.87C1931.9 1079.07 1932.34 1079.4 1932.78 1079.84C1933.22 1080.3 1933.54 1080.74 1933.74 1081.17C1933.94 1081.6 1934.02 1082 1933.97 1082.38C1933.91 1082.75 1933.74 1083.09 1933.43 1083.39ZM1932.99 1082.95C1933.3 1082.65 1933.39 1082.27 1933.27 1081.82C1933.15 1081.36 1932.82 1080.86 1932.29 1080.32C1931.94 1079.96 1931.6 1079.7 1931.27 1079.52C1930.95 1079.34 1930.65 1079.26 1930.38 1079.26C1930.11 1079.27 1929.87 1079.37 1929.67 1079.57C1929.37 1079.86 1929.28 1080.24 1929.4 1080.7C1929.52 1081.17 1929.85 1081.66 1930.38 1082.2C1930.73 1082.56 1931.07 1082.83 1931.39 1083.01C1931.72 1083.18 1932.01 1083.27 1932.28 1083.26C1932.56 1083.25 1932.79 1083.15 1932.99 1082.95ZM1935.83 1080.99C1935.73 1081.08 1935.61 1081.13 1935.47 1081.13C1935.33 1081.13 1935.21 1081.08 1935.11 1080.98C1935.01 1080.88 1934.96 1080.76 1934.96 1080.62C1934.96 1080.47 1935.01 1080.35 1935.11 1080.26C1935.21 1080.16 1935.33 1080.11 1935.48 1080.11C1935.62 1080.11 1935.74 1080.16 1935.84 1080.26C1935.9 1080.33 1935.94 1080.41 1935.97 1080.49C1935.99 1080.58 1935.99 1080.67 1935.97 1080.76C1935.94 1080.84 1935.9 1080.92 1935.83 1080.99ZM1933.9 1074.66L1937.98 1078.81L1937.47 1079.31L1933.91 1075.69L1933.89 1075.71L1933.54 1077.38L1933.03 1076.87L1933.39 1075.16L1933.9 1074.66ZM1936.55 1072.06L1940.63 1076.2L1940.12 1076.7L1936.56 1073.08L1936.54 1073.1L1936.19 1074.77L1935.68 1074.26L1936.04 1072.55L1936.55 1072.06ZM1941.74 1074L1941.92 1074.25C1942.05 1074.42 1942.18 1074.62 1942.3 1074.84C1942.43 1075.06 1942.54 1075.28 1942.65 1075.48C1942.75 1075.69 1942.83 1075.85 1942.89 1075.97L1942.52 1076.33C1942.45 1076.23 1942.36 1076.09 1942.25 1075.92C1942.14 1075.75 1942.02 1075.57 1941.87 1075.36C1941.73 1075.16 1941.58 1074.96 1941.42 1074.76L1941.22 1074.51L1941.74 1074ZM1946.19 1070.85C1945.88 1071.15 1945.54 1071.32 1945.16 1071.37C1944.78 1071.41 1944.38 1071.33 1943.95 1071.12C1943.53 1070.92 1943.09 1070.59 1942.65 1070.14C1942.21 1069.69 1941.89 1069.25 1941.69 1068.82C1941.49 1068.39 1941.41 1067.98 1941.46 1067.6C1941.51 1067.22 1941.69 1066.88 1941.99 1066.59C1942.3 1066.29 1942.64 1066.12 1943.02 1066.08C1943.4 1066.03 1943.8 1066.11 1944.23 1066.32C1944.66 1066.52 1945.09 1066.85 1945.53 1067.3C1945.97 1067.75 1946.3 1068.19 1946.5 1068.62C1946.7 1069.05 1946.77 1069.45 1946.72 1069.83C1946.67 1070.21 1946.49 1070.55 1946.19 1070.85ZM1945.75 1070.4C1946.05 1070.1 1946.14 1069.73 1946.02 1069.27C1945.9 1068.81 1945.58 1068.32 1945.05 1067.78C1944.69 1067.42 1944.35 1067.15 1944.03 1066.97C1943.7 1066.79 1943.4 1066.71 1943.13 1066.72C1942.86 1066.73 1942.62 1066.83 1942.42 1067.02C1942.12 1067.32 1942.04 1067.7 1942.16 1068.16C1942.28 1068.62 1942.6 1069.12 1943.13 1069.66C1943.49 1070.02 1943.82 1070.28 1944.15 1070.46C1944.47 1070.64 1944.77 1070.72 1945.04 1070.71C1945.31 1070.7 1945.55 1070.6 1945.75 1070.4ZM1948.58 1068.44C1948.48 1068.54 1948.36 1068.59 1948.22 1068.58C1948.08 1068.58 1947.96 1068.53 1947.86 1068.43C1947.76 1068.33 1947.71 1068.21 1947.72 1068.07C1947.72 1067.93 1947.77 1067.81 1947.87 1067.71C1947.97 1067.61 1948.09 1067.56 1948.23 1067.56C1948.37 1067.57 1948.49 1067.62 1948.59 1067.72C1948.66 1067.78 1948.7 1067.86 1948.72 1067.95C1948.74 1068.04 1948.74 1068.12 1948.72 1068.21C1948.7 1068.3 1948.65 1068.37 1948.58 1068.44ZM1949.77 1067.21L1949.41 1066.85L1949.3 1064C1949.29 1063.67 1949.27 1063.39 1949.25 1063.15C1949.22 1062.92 1949.18 1062.72 1949.12 1062.56C1949.05 1062.39 1948.96 1062.25 1948.84 1062.12C1948.69 1061.97 1948.53 1061.88 1948.36 1061.84C1948.18 1061.8 1948.01 1061.81 1947.83 1061.87C1947.65 1061.94 1947.49 1062.04 1947.34 1062.19C1947.18 1062.34 1947.08 1062.51 1947.02 1062.7C1946.97 1062.88 1946.97 1063.06 1947.02 1063.24C1947.07 1063.42 1947.17 1063.59 1947.33 1063.75L1946.85 1064.22C1946.61 1063.97 1946.46 1063.7 1946.39 1063.41C1946.32 1063.12 1946.33 1062.82 1946.42 1062.53C1946.52 1062.24 1946.69 1061.97 1946.93 1061.73C1947.17 1061.49 1947.44 1061.33 1947.72 1061.25C1948.01 1061.17 1948.3 1061.16 1948.57 1061.23C1948.85 1061.3 1949.1 1061.44 1949.31 1061.66C1949.46 1061.81 1949.58 1061.99 1949.66 1062.19C1949.75 1062.38 1949.82 1062.64 1949.86 1062.95C1949.9 1063.26 1949.92 1063.66 1949.94 1064.14L1949.99 1066.06L1950.02 1066.09L1951.94 1064.19L1952.38 1064.64L1949.77 1067.21ZM1950.6 1058.23L1954.68 1062.38L1954.18 1062.88L1950.61 1059.25L1950.59 1059.28L1950.24 1060.95L1949.74 1060.44L1950.1 1058.73L1950.6 1058.23ZM1954.86 1058.12C1955.36 1058.63 1955.76 1059.17 1956.05 1059.73C1956.33 1060.29 1956.53 1060.87 1956.64 1061.47L1956.22 1061.89C1956.18 1061.66 1956.11 1061.4 1956 1061.12C1955.9 1060.85 1955.76 1060.56 1955.6 1060.27C1955.43 1059.97 1955.24 1059.68 1955.03 1059.4C1954.82 1059.11 1954.6 1058.85 1954.37 1058.61C1954.05 1058.29 1953.7 1057.99 1953.31 1057.72C1952.92 1057.45 1952.54 1057.23 1952.15 1057.05C1951.77 1056.87 1951.42 1056.75 1951.12 1056.7L1951.54 1056.29C1952.14 1056.4 1952.72 1056.61 1953.27 1056.91C1953.83 1057.21 1954.36 1057.61 1954.86 1058.12Z" fill="white" fill-opacity="0.3"/>
<path d="M2593.46 436.242L2696.3 436.242" stroke="#3A393B"/>
</svg>
