<svg width="112" height="111" viewBox="0 0 112 111" fill="none" xmlns="http://www.w3.org/2000/svg">
<path d="M63.1631 1.71387C63.605 0.825474 64.4748 0.363777 65.6221 0.53418C66.635 0.698874 67.3654 1.46125 67.4893 2.54688L67.4902 2.55469L67.4912 2.56348L68.3867 8.61426L68.4346 8.93457L68.7451 9.02246C71.199 9.71837 73.6036 10.5797 75.9424 11.6006L76.2344 11.7285L76.4736 11.5176L80.9512 7.56543L80.9678 7.55078L80.9834 7.53418C81.3853 7.10918 81.8159 6.89796 82.2578 6.84473C82.7032 6.79111 83.2072 6.89295 83.7588 7.17871H83.7598C84.6229 7.65307 85.0217 8.61036 84.8027 9.80176L83.5596 15.7412L83.4932 16.0596L83.7578 16.25C85.823 17.7302 87.7838 19.3526 89.625 21.1064L89.8584 21.3291L90.1572 21.208L95.7275 18.957L95.7344 18.9541L95.7422 18.9502C96.2779 18.713 96.7576 18.6734 97.1885 18.7891C97.6233 18.9059 98.0621 19.1954 98.4854 19.7109L98.4951 19.7236L98.5068 19.7363C99.1879 20.4628 99.2744 21.5056 98.7041 22.3701L98.6973 22.3818L95.4629 27.582L95.2871 27.8643L95.4805 28.1357C96.9498 30.2009 98.1283 32.4221 99.2646 34.8115L99.4062 35.1104L99.7363 35.0967L105.806 34.8467L105.805 34.8457C106.883 34.8031 107.772 35.3758 108.146 36.4082C108.472 37.4465 108.152 38.3688 107.282 38.9912L107.27 39L107.258 39.0098L102.534 42.8613L102.284 43.0654L102.366 43.377C103.008 45.8059 103.498 48.2753 103.692 50.9375L103.717 51.2734L104.038 51.377L109.796 53.2217C110.878 53.6144 111.5 54.4001 111.5 55.4502C111.5 56.5575 110.871 57.3411 109.794 57.7314L104.044 59.5234L103.72 59.625L103.694 59.9648C103.5 62.6289 103.008 65.1985 102.367 67.5742L102.282 67.8896L102.537 68.0938L107.263 71.8936V71.8945L107.271 71.9014C108.152 72.5763 108.472 73.556 108.144 74.5996C107.769 75.6272 106.882 76.1962 105.806 76.1553H105.805L99.7432 75.8545L99.4102 75.8389L99.2666 76.1396C98.1282 78.5289 96.948 80.7507 95.4805 82.8184L95.2881 83.0889L95.4629 83.3721L98.6953 88.5713L98.6973 88.5752C99.2804 89.498 99.1855 90.5438 98.5068 91.2656L98.4951 91.2783L98.4854 91.291C98.0656 91.8023 97.629 92.0806 97.1934 92.1924C96.7592 92.3037 96.2747 92.2626 95.7324 92.0449L90.1641 89.6992L89.8555 89.5693L89.6172 89.8047C87.8068 91.5995 85.8493 93.238 83.7646 94.7012L83.4951 94.8896L83.5615 95.2119L84.8037 101.203V101.204C85.0201 102.337 84.6263 103.297 83.7607 103.771L83.7549 103.774C83.2125 104.08 82.7114 104.174 82.2627 104.115C81.813 104.056 81.3731 103.839 80.9648 103.449H80.9658L80.9561 103.44L76.4785 99.3887L76.2383 99.1709L75.9414 99.3018C73.5651 100.347 71.1557 101.288 68.7529 101.927L68.4346 102.011L68.3867 102.336L67.4912 108.388L67.4902 108.397L67.4893 108.406C67.3661 109.526 66.6461 110.255 65.6152 110.468C64.4887 110.633 63.6108 110.139 63.165 109.239L63.1602 109.229L60.2744 103.729L60.1211 103.438L59.7939 103.462C58.4194 103.565 57.2707 103.711 56.001 103.711C54.6847 103.711 53.4796 103.564 52.1084 103.462L51.7783 103.438L51.627 103.731L48.7939 109.232L48.791 109.239C48.3459 110.134 47.4705 110.634 46.2881 110.468C45.3348 110.271 44.6673 109.625 44.4492 108.6L44.4111 108.389L43.5645 102.34L43.5186 102.01L43.1963 101.926L42.2793 101.673C40.1442 101.05 38.0402 100.216 35.9609 99.3018L35.6621 99.1709L35.4219 99.3906L30.9951 103.442L30.9883 103.449C30.58 103.838 30.1398 104.055 29.6895 104.114C29.2402 104.173 28.739 104.08 28.1982 103.775V103.774L28.1934 103.771L28.0361 103.678C27.2819 103.179 26.9486 102.273 27.1484 101.212L28.3916 95.209L28.458 94.8857L28.1875 94.6973C26.1195 93.2602 24.1041 91.6296 22.2871 89.8047L22.0479 89.5645L21.7363 89.6973L16.2227 92.0459C15.6818 92.2622 15.1822 92.3056 14.7314 92.1924C14.2806 92.079 13.8342 91.7979 13.418 91.291L13.4072 91.2783L13.3955 91.2666L13.2754 91.1279C12.7099 90.4161 12.664 89.4483 13.2461 88.5879L13.2578 88.5684L16.4414 83.3662L16.6104 83.0898L16.4268 82.8223C15.0071 80.7556 13.8274 78.5285 12.6865 76.1406L12.543 75.8408L12.2109 75.8574L6.09863 76.1553C5.01252 76.1965 4.13286 75.621 3.80762 74.6016C3.47234 73.5457 3.76187 72.5675 4.63281 71.9014L4.63965 71.8955L9.41406 68.0977L9.67188 67.8936L9.58594 67.5762C8.94331 65.1905 8.40561 62.6284 8.25977 60.0264L8.24023 59.6836L7.91309 59.5781L2.15234 57.7314C1.58557 57.5335 1.18027 57.2373 0.915039 56.8721C0.650288 56.5074 0.5 56.0393 0.5 55.4541C0.500023 54.8668 0.650702 54.3998 0.913086 54.043C1.17538 53.6863 1.57552 53.4038 2.13574 53.2305L2.14062 53.2295L7.91309 51.3789L8.24023 51.2744L8.25977 50.9307C8.40556 48.2791 8.94314 45.8161 9.58496 43.3789L9.66699 43.0654L9.41504 42.8623L4.64062 39.0107L4.62988 39.002L4.61816 38.9932L4.46387 38.875C3.7281 38.2642 3.49321 37.3941 3.80957 36.4004L3.81055 36.3994C4.11369 35.4465 4.90312 34.8815 5.89746 34.8486H6.09766L12.2148 35.0986L12.5449 35.1123L12.6865 34.8145C13.8251 32.427 15.0053 30.2031 16.4727 28.1377L16.666 27.8652L16.4893 27.583L13.207 22.3291L13.2021 22.3223C12.9471 21.9281 12.8288 21.4597 12.8652 20.9902C12.9017 20.5208 13.0907 20.0769 13.4033 19.7275L13.4111 19.7197L13.418 19.7109C13.8379 19.1996 14.2874 18.9071 14.7373 18.7891C15.1844 18.6718 15.6776 18.7141 16.2109 18.9502L16.2246 18.9561L21.7441 21.207L22.0439 21.3301L22.2783 21.1055C24.1237 19.3408 26.0995 17.7194 28.1885 16.2549L28.459 16.0654L28.3916 15.7432L27.1484 9.80176C26.9313 8.60928 27.3312 7.65144 28.1904 7.18164L28.1895 7.18066C28.716 6.89387 29.2095 6.79106 29.6572 6.84473C30.1016 6.898 30.5482 7.11218 30.9785 7.54395L31.002 7.56543L35.4775 11.5176L35.7168 11.7295L36.0098 11.5996C38.3505 10.5676 40.7559 9.69057 43.21 8.97266L43.5195 8.88184L43.5645 8.5625L44.4102 2.56445L44.4111 2.56543C44.5803 1.45157 45.282 0.696303 46.2812 0.53418C47.4829 0.363044 48.3518 0.830617 48.791 1.71387L48.7939 1.7207L51.627 7.22168L51.7773 7.51465L52.1074 7.49121C53.5094 7.39036 54.6803 7.292 56.001 7.29199C57.2703 7.29199 58.4438 7.3904 59.792 7.49121L60.1191 7.51562L60.2715 7.22461L63.1582 1.72363L63.1631 1.71387Z" stroke="black" stroke-opacity="0.4"/>
</svg>
