<svg width="231" height="229" viewBox="0 0 231 229" fill="none" xmlns="http://www.w3.org/2000/svg">
<mask id="path-1-inside-1_1866_594" fill="white">
<path d="M115.502 214.993C118.172 214.993 120.632 214.685 123.402 214.478L129.354 225.826C130.479 228.098 132.737 229.335 135.503 228.921C138.068 228.406 139.915 226.548 140.221 223.762L142.068 211.277C147.097 209.939 152.121 207.976 157.045 205.81L166.279 214.17C168.227 216.027 170.686 216.437 173.251 214.993C175.509 213.756 176.433 211.277 175.921 208.597L173.356 196.218C177.704 193.166 181.787 189.749 185.562 186.005L197.051 190.847C199.616 191.882 201.975 191.367 203.922 188.994C205.668 187.137 205.87 184.456 204.434 182.184L197.769 171.456C200.845 167.12 203.309 162.476 205.668 157.524L218.185 158.145C220.846 158.246 223.105 156.802 224.028 154.227C224.847 151.643 224.028 149.169 221.875 147.518L212.128 139.678C213.463 134.726 214.492 129.359 214.899 123.786L226.798 120.075C229.363 119.147 231 117.183 231 114.397C231 111.716 229.363 109.757 226.798 108.828L214.894 105.012C214.487 99.4385 213.463 94.2793 212.128 89.2257L221.87 81.28C224.028 79.7349 224.847 77.3622 224.028 74.7826C223.105 72.203 220.846 70.7547 218.181 70.8603L205.664 71.3754C203.309 66.423 200.85 61.7789 197.769 57.4472L204.439 46.7194C205.87 44.5492 205.664 41.8683 203.922 40.0106C201.975 37.6379 199.616 37.0172 197.051 38.153L185.562 42.7971C181.73 39.1458 177.65 35.7672 173.352 32.6856L175.921 20.4082C176.433 17.6217 175.509 15.1478 173.251 13.9064C170.686 12.5682 168.227 12.775 166.279 14.8352L157.045 22.9878C152.178 20.863 147.174 19.0702 142.068 17.6217L140.221 5.13746C139.915 2.4522 138.068 0.497683 135.503 0.0838887C132.733 -0.329906 130.479 0.805828 129.35 3.07729L123.398 14.4258C120.632 14.2189 118.168 14.012 115.502 14.012C112.732 14.012 110.272 14.2189 107.397 14.4258L101.554 3.07729C100.425 0.805828 98.1666 -0.329906 95.2955 0.0838887C92.7309 0.497683 90.9846 2.4566 90.5776 5.13746L88.8313 17.5205C83.7265 19.0142 78.7237 20.8406 73.8547 22.9878L64.6245 14.8352C62.5719 12.775 60.1123 12.5682 57.6482 13.9108C55.3943 15.1434 54.4708 17.6217 54.9785 20.4082L57.5476 32.69C53.196 35.7415 49.0804 39.1202 45.2363 42.7971L33.8528 38.153C31.2881 37.0172 28.8241 37.6379 26.8765 40.0106C26.08 40.9008 25.598 42.0307 25.5054 43.2247C25.4128 44.4187 25.7148 45.6101 26.3645 46.6137L33.135 57.4516C30.0583 61.7833 27.5943 66.4318 25.2353 71.3798L12.6177 70.8647C9.94796 70.7635 7.69402 72.2074 6.8756 74.7826C6.0528 77.3666 6.77056 79.7393 8.92384 81.2844L18.7711 89.2302C17.4406 94.2837 16.3115 99.4429 16.0051 105.016L4.10085 108.833C1.43989 109.656 0 111.619 0 114.406C0 117.188 1.43989 119.151 4.10523 120.08L16.0051 123.896C16.3115 129.364 17.4407 134.726 18.7755 139.682L8.92821 147.518C6.77056 149.169 6.0528 151.647 6.87122 154.222C7.69402 156.802 9.95233 158.246 12.6177 158.145L25.2353 157.528C27.5987 162.476 30.0583 167.125 33.03 171.452L26.4651 182.184C24.929 184.456 25.1347 187.137 26.8765 188.994C28.8241 191.367 31.2881 191.882 33.8528 190.852L45.2363 186.001C49.0351 189.817 53.241 193.22 57.5476 196.214L54.9829 208.597C54.4709 211.282 55.3943 213.756 57.6526 214.993C60.2129 216.437 62.6769 216.023 64.6245 214.17L73.754 205.81C78.6777 207.976 83.702 209.939 88.8313 211.277L90.5776 223.762C90.9846 226.548 92.7309 228.406 95.2955 228.921C98.1666 229.335 100.425 228.098 101.554 225.826L107.397 214.478C110.167 214.685 112.736 214.993 115.502 214.993ZM141.25 107.899C136.427 94.9 126.991 87.7819 115.196 87.7819C113.45 87.7819 111.401 87.9888 108.119 88.7063L78.6777 38.153C89.6541 32.6856 102.167 29.6922 115.502 29.6922C160.226 29.6922 195.305 63.8434 198.486 107.899H141.25ZM32.2116 114.502C32.2116 85.8186 45.6477 60.5419 66.8828 45.2755L96.5254 96.137C90.9846 101.917 88.4243 108.207 88.4243 114.916C88.4243 121.414 90.884 127.4 96.5254 133.383L66.1651 183.32C45.442 167.944 32.2116 142.979 32.2116 114.502ZM102.885 114.811C102.885 107.798 108.837 102.326 115.402 102.326C122.373 102.326 128.12 107.798 128.12 114.811C128.12 121.722 122.373 127.4 115.402 127.4C108.837 127.4 102.885 121.722 102.885 114.811ZM115.502 199.313C101.86 199.313 89.1421 196.112 77.9599 190.544L108.115 140.915C111.296 141.742 113.454 141.945 115.196 141.945C127.091 141.945 136.532 134.62 141.25 121.312H198.482C195.2 165.157 160.121 199.313 115.502 199.313Z"/>
</mask>
<path d="M115.502 214.993C118.172 214.993 120.632 214.685 123.402 214.478L129.354 225.826C130.479 228.098 132.737 229.335 135.503 228.921C138.068 228.406 139.915 226.548 140.221 223.762L142.068 211.277C147.097 209.939 152.121 207.976 157.045 205.81L166.279 214.17C168.227 216.027 170.686 216.437 173.251 214.993C175.509 213.756 176.433 211.277 175.921 208.597L173.356 196.218C177.704 193.166 181.787 189.749 185.562 186.005L197.051 190.847C199.616 191.882 201.975 191.367 203.922 188.994C205.668 187.137 205.87 184.456 204.434 182.184L197.769 171.456C200.845 167.12 203.309 162.476 205.668 157.524L218.185 158.145C220.846 158.246 223.105 156.802 224.028 154.227C224.847 151.643 224.028 149.169 221.875 147.518L212.128 139.678C213.463 134.726 214.492 129.359 214.899 123.786L226.798 120.075C229.363 119.147 231 117.183 231 114.397C231 111.716 229.363 109.757 226.798 108.828L214.894 105.012C214.487 99.4385 213.463 94.2793 212.128 89.2257L221.87 81.28C224.028 79.7349 224.847 77.3622 224.028 74.7826C223.105 72.203 220.846 70.7547 218.181 70.8603L205.664 71.3754C203.309 66.423 200.85 61.7789 197.769 57.4472L204.439 46.7194C205.87 44.5492 205.664 41.8683 203.922 40.0106C201.975 37.6379 199.616 37.0172 197.051 38.153L185.562 42.7971C181.73 39.1458 177.65 35.7672 173.352 32.6856L175.921 20.4082C176.433 17.6217 175.509 15.1478 173.251 13.9064C170.686 12.5682 168.227 12.775 166.279 14.8352L157.045 22.9878C152.178 20.863 147.174 19.0702 142.068 17.6217L140.221 5.13746C139.915 2.4522 138.068 0.497683 135.503 0.0838887C132.733 -0.329906 130.479 0.805828 129.35 3.07729L123.398 14.4258C120.632 14.2189 118.168 14.012 115.502 14.012C112.732 14.012 110.272 14.2189 107.397 14.4258L101.554 3.07729C100.425 0.805828 98.1666 -0.329906 95.2955 0.0838887C92.7309 0.497683 90.9846 2.4566 90.5776 5.13746L88.8313 17.5205C83.7265 19.0142 78.7237 20.8406 73.8547 22.9878L64.6245 14.8352C62.5719 12.775 60.1123 12.5682 57.6482 13.9108C55.3943 15.1434 54.4708 17.6217 54.9785 20.4082L57.5476 32.69C53.196 35.7415 49.0804 39.1202 45.2363 42.7971L33.8528 38.153C31.2881 37.0172 28.8241 37.6379 26.8765 40.0106C26.08 40.9008 25.598 42.0307 25.5054 43.2247C25.4128 44.4187 25.7148 45.6101 26.3645 46.6137L33.135 57.4516C30.0583 61.7833 27.5943 66.4318 25.2353 71.3798L12.6177 70.8647C9.94796 70.7635 7.69402 72.2074 6.8756 74.7826C6.0528 77.3666 6.77056 79.7393 8.92384 81.2844L18.7711 89.2302C17.4406 94.2837 16.3115 99.4429 16.0051 105.016L4.10085 108.833C1.43989 109.656 0 111.619 0 114.406C0 117.188 1.43989 119.151 4.10523 120.08L16.0051 123.896C16.3115 129.364 17.4407 134.726 18.7755 139.682L8.92821 147.518C6.77056 149.169 6.0528 151.647 6.87122 154.222C7.69402 156.802 9.95233 158.246 12.6177 158.145L25.2353 157.528C27.5987 162.476 30.0583 167.125 33.03 171.452L26.4651 182.184C24.929 184.456 25.1347 187.137 26.8765 188.994C28.8241 191.367 31.2881 191.882 33.8528 190.852L45.2363 186.001C49.0351 189.817 53.241 193.22 57.5476 196.214L54.9829 208.597C54.4709 211.282 55.3943 213.756 57.6526 214.993C60.2129 216.437 62.6769 216.023 64.6245 214.17L73.754 205.81C78.6777 207.976 83.702 209.939 88.8313 211.277L90.5776 223.762C90.9846 226.548 92.7309 228.406 95.2955 228.921C98.1666 229.335 100.425 228.098 101.554 225.826L107.397 214.478C110.167 214.685 112.736 214.993 115.502 214.993ZM141.25 107.899C136.427 94.9 126.991 87.7819 115.196 87.7819C113.45 87.7819 111.401 87.9888 108.119 88.7063L78.6777 38.153C89.6541 32.6856 102.167 29.6922 115.502 29.6922C160.226 29.6922 195.305 63.8434 198.486 107.899H141.25ZM32.2116 114.502C32.2116 85.8186 45.6477 60.5419 66.8828 45.2755L96.5254 96.137C90.9846 101.917 88.4243 108.207 88.4243 114.916C88.4243 121.414 90.884 127.4 96.5254 133.383L66.1651 183.32C45.442 167.944 32.2116 142.979 32.2116 114.502ZM102.885 114.811C102.885 107.798 108.837 102.326 115.402 102.326C122.373 102.326 128.12 107.798 128.12 114.811C128.12 121.722 122.373 127.4 115.402 127.4C108.837 127.4 102.885 121.722 102.885 114.811ZM115.502 199.313C101.86 199.313 89.1421 196.112 77.9599 190.544L108.115 140.915C111.296 141.742 113.454 141.945 115.196 141.945C127.091 141.945 136.532 134.62 141.25 121.312H198.482C195.2 165.157 160.121 199.313 115.502 199.313Z" stroke="#95948C" stroke-width="2" mask="url(#path-1-inside-1_1866_594)"/>
</svg>
